<mxfile host="app.diagrams.net" agent="Mozilla/5.0 (Windows NT 10.0; Win64; x64) AppleWebKit/537.36 (KHTML, like Gecko) Chrome/124.0.0.0 Safari/537.36" version="28.2.3">
  <diagram name="Page-1" id="EACMAQgvOwEhw3ycraRE">
    <mxGraphModel dx="1603" dy="811" grid="1" gridSize="10" guides="1" tooltips="1" connect="1" arrows="1" fold="1" page="1" pageScale="1" pageWidth="850" pageHeight="1100" math="0" shadow="0">
      <root>
        <mxCell id="0" />
        <mxCell id="1" parent="0" />
        <mxCell id="tlY4U1idIK_ZboIL1Tc7-1" value="Start" style="ellipse;whiteSpace=wrap;html=1;aspect=fixed;" vertex="1" parent="1">
          <mxGeometry x="380" y="50" width="80" height="80" as="geometry" />
        </mxCell>
        <mxCell id="tlY4U1idIK_ZboIL1Tc7-2" value="" style="endArrow=classic;html=1;rounded=0;" edge="1" parent="1">
          <mxGeometry width="50" height="50" relative="1" as="geometry">
            <mxPoint x="419.5" y="130" as="sourcePoint" />
            <mxPoint x="420" y="180" as="targetPoint" />
          </mxGeometry>
        </mxCell>
        <mxCell id="tlY4U1idIK_ZboIL1Tc7-3" value="" style="rounded=0;whiteSpace=wrap;html=1;" vertex="1" parent="1">
          <mxGeometry x="360" y="180" width="120" height="60" as="geometry" />
        </mxCell>
        <mxCell id="tlY4U1idIK_ZboIL1Tc7-4" value="User Navigates to friend list" style="rounded=0;whiteSpace=wrap;html=1;" vertex="1" parent="1">
          <mxGeometry x="375" y="180" width="90" height="60" as="geometry" />
        </mxCell>
        <mxCell id="tlY4U1idIK_ZboIL1Tc7-5" value="" style="endArrow=classic;html=1;rounded=0;" edge="1" parent="1">
          <mxGeometry width="50" height="50" relative="1" as="geometry">
            <mxPoint x="419.5" y="240" as="sourcePoint" />
            <mxPoint x="419.5" y="290" as="targetPoint" />
          </mxGeometry>
        </mxCell>
        <mxCell id="tlY4U1idIK_ZboIL1Tc7-6" value="User selects profile of other user" style="rounded=1;whiteSpace=wrap;html=1;" vertex="1" parent="1">
          <mxGeometry x="360" y="290" width="120" height="60" as="geometry" />
        </mxCell>
        <mxCell id="tlY4U1idIK_ZboIL1Tc7-7" value="" style="endArrow=classic;html=1;rounded=0;" edge="1" parent="1">
          <mxGeometry width="50" height="50" relative="1" as="geometry">
            <mxPoint x="419.5" y="350" as="sourcePoint" />
            <mxPoint x="419.5" y="400" as="targetPoint" />
          </mxGeometry>
        </mxCell>
        <mxCell id="tlY4U1idIK_ZboIL1Tc7-8" value="Add Friend?" style="rhombus;whiteSpace=wrap;html=1;" vertex="1" parent="1">
          <mxGeometry x="380" y="400" width="80" height="80" as="geometry" />
        </mxCell>
        <mxCell id="tlY4U1idIK_ZboIL1Tc7-11" value="" style="endArrow=none;html=1;rounded=0;" edge="1" parent="1">
          <mxGeometry width="50" height="50" relative="1" as="geometry">
            <mxPoint x="190" y="439.5" as="sourcePoint" />
            <mxPoint x="380" y="439.5" as="targetPoint" />
          </mxGeometry>
        </mxCell>
        <mxCell id="tlY4U1idIK_ZboIL1Tc7-12" value="NO" style="edgeLabel;html=1;align=center;verticalAlign=middle;resizable=0;points=[];" vertex="1" connectable="0" parent="tlY4U1idIK_ZboIL1Tc7-11">
          <mxGeometry x="0.0168" y="1" relative="1" as="geometry">
            <mxPoint as="offset" />
          </mxGeometry>
        </mxCell>
        <mxCell id="tlY4U1idIK_ZboIL1Tc7-13" value="" style="endArrow=none;html=1;rounded=0;" edge="1" parent="1">
          <mxGeometry width="50" height="50" relative="1" as="geometry">
            <mxPoint x="190" y="440" as="sourcePoint" />
            <mxPoint x="190" y="200" as="targetPoint" />
          </mxGeometry>
        </mxCell>
        <mxCell id="tlY4U1idIK_ZboIL1Tc7-14" value="" style="endArrow=classic;html=1;rounded=0;" edge="1" parent="1">
          <mxGeometry width="50" height="50" relative="1" as="geometry">
            <mxPoint x="190" y="200" as="sourcePoint" />
            <mxPoint x="340" y="200" as="targetPoint" />
          </mxGeometry>
        </mxCell>
        <mxCell id="tlY4U1idIK_ZboIL1Tc7-15" value="" style="endArrow=classic;html=1;rounded=0;" edge="1" parent="1">
          <mxGeometry width="50" height="50" relative="1" as="geometry">
            <mxPoint x="419.5" y="480" as="sourcePoint" />
            <mxPoint x="419.5" y="540" as="targetPoint" />
          </mxGeometry>
        </mxCell>
        <mxCell id="tlY4U1idIK_ZboIL1Tc7-16" value="YES" style="edgeLabel;html=1;align=center;verticalAlign=middle;resizable=0;points=[];" vertex="1" connectable="0" parent="tlY4U1idIK_ZboIL1Tc7-15">
          <mxGeometry x="-0.3133" relative="1" as="geometry">
            <mxPoint as="offset" />
          </mxGeometry>
        </mxCell>
        <mxCell id="tlY4U1idIK_ZboIL1Tc7-18" value="" style="rounded=0;whiteSpace=wrap;html=1;" vertex="1" parent="1">
          <mxGeometry x="350" y="540" width="140" height="60" as="geometry" />
        </mxCell>
        <mxCell id="tlY4U1idIK_ZboIL1Tc7-19" value="Friend Request Send" style="rounded=0;whiteSpace=wrap;html=1;" vertex="1" parent="1">
          <mxGeometry x="370" y="540" width="100" height="60" as="geometry" />
        </mxCell>
        <mxCell id="tlY4U1idIK_ZboIL1Tc7-20" value="Cancel Request?" style="rhombus;whiteSpace=wrap;html=1;" vertex="1" parent="1">
          <mxGeometry x="380" y="660" width="80" height="80" as="geometry" />
        </mxCell>
        <mxCell id="tlY4U1idIK_ZboIL1Tc7-21" value="" style="endArrow=classic;html=1;rounded=0;" edge="1" parent="1">
          <mxGeometry width="50" height="50" relative="1" as="geometry">
            <mxPoint x="419.5" y="600" as="sourcePoint" />
            <mxPoint x="419.5" y="660" as="targetPoint" />
          </mxGeometry>
        </mxCell>
        <mxCell id="tlY4U1idIK_ZboIL1Tc7-22" value="" style="endArrow=none;html=1;rounded=0;" edge="1" parent="1">
          <mxGeometry width="50" height="50" relative="1" as="geometry">
            <mxPoint x="190" y="700" as="sourcePoint" />
            <mxPoint x="375" y="700" as="targetPoint" />
          </mxGeometry>
        </mxCell>
        <mxCell id="tlY4U1idIK_ZboIL1Tc7-23" value="YES" style="edgeLabel;html=1;align=center;verticalAlign=middle;resizable=0;points=[];" vertex="1" connectable="0" parent="tlY4U1idIK_ZboIL1Tc7-22">
          <mxGeometry x="0.0919" y="1" relative="1" as="geometry">
            <mxPoint as="offset" />
          </mxGeometry>
        </mxCell>
        <mxCell id="tlY4U1idIK_ZboIL1Tc7-24" value="" style="endArrow=none;html=1;rounded=0;" edge="1" parent="1">
          <mxGeometry width="50" height="50" relative="1" as="geometry">
            <mxPoint x="190" y="700" as="sourcePoint" />
            <mxPoint x="190" y="440" as="targetPoint" />
          </mxGeometry>
        </mxCell>
        <mxCell id="tlY4U1idIK_ZboIL1Tc7-25" value="End" style="ellipse;whiteSpace=wrap;html=1;aspect=fixed;" vertex="1" parent="1">
          <mxGeometry x="395" y="780" width="50" height="50" as="geometry" />
        </mxCell>
        <mxCell id="tlY4U1idIK_ZboIL1Tc7-26" value="" style="endArrow=classic;html=1;rounded=0;" edge="1" parent="1">
          <mxGeometry width="50" height="50" relative="1" as="geometry">
            <mxPoint x="419.5" y="740" as="sourcePoint" />
            <mxPoint x="420" y="780" as="targetPoint" />
          </mxGeometry>
        </mxCell>
      </root>
    </mxGraphModel>
  </diagram>
</mxfile>
